<svg id="Grupo_345" data-name="Grupo 345" xmlns="http://www.w3.org/2000/svg" width="138.268" height="168.796" viewBox="0 0 138.268 168.796">
  <g id="Grupo_341" data-name="Grupo 341" transform="translate(0 15.495)">
    <path id="Trazado_126" data-name="Trazado 126" d="M76.926,148.222c-.165,1.319-.363,2.637-.56,3.923a69.587,69.587,0,0,1-3.3,12.033c-9.66-14.143-26.144-17.473-26.144-17.473a21.6,21.6,0,0,0-7.616-16.88,20.837,20.837,0,0,0-5.11-3.33S58.7,125.836,76.926,148.222Z" transform="translate(-22.925 -100.286)" fill="#f4516d"/>
    <path id="Trazado_127" data-name="Trazado 127" d="M54.364,87.188V88.54c0,.758,0,1.517-.033,2.275-.066,1.385-.165,2.769-.33,4.121C35.77,72.583,11.242,73.21,11.242,73.21a13.429,13.429,0,0,0,.659-2.934C13.517,57.945,0,47,0,47c16.913,1.978,28.88,8.11,37.32,15.4A60.983,60.983,0,0,1,54.364,87.188Z" transform="translate(0 -47)" fill="#f4516d"/>
  </g>
  <path id="Trazado_128" data-name="Trazado 128" d="M80.947,142.589l-4.517,3.692-.165-.2-1.681-2.077A55.757,55.757,0,0,0,39.21,123.764a20.837,20.837,0,0,0-5.11-3.33,13.429,13.429,0,0,0,.659-2.934c4.286.066,25.385,1.418,42.4,20.506.659.725,1.286,1.484,1.945,2.275Z" transform="translate(-22.858 -78.763)" fill="#d64766"/>
  <path id="Trazado_129" data-name="Trazado 129" d="M254.4,0c16.946,0,24.2,27.232,24.2,27.232l-.1.264a83.658,83.658,0,0,0-13.22-4.088h0C265.345,10.484,254.4,0,254.4,0Z" transform="translate(-170.529)" fill="#46ba43"/>
  <path id="Trazado_130" data-name="Trazado 130" d="M220.341,66.155c0,13.945-14.869,17.737-34.88,11.638h0c.725,2.407,1.418,5.011,2.044,7.78a99.675,99.675,0,0,1,1.879,10.879l-3.791-2.473-22.979,14.869-10.154-6.561h0L139.636,93.98,124.8,103.574c2.077-2.44,5.967-8.6,9-16.814h0a69.382,69.382,0,0,0,3.89-15.957,58,58,0,0,0,.363-6.4V63.056c0-9.726-.033-20.374,4.451-27.232,2.407-3.659,6.1-6.231,11.868-7.022C152.032,18.583,144.119,11,144.119,11c10.22,0,16.913,9.923,20.638,17.77.989.066,2.011.165,3,.264a91.959,91.959,0,0,1,10.715,1.714h0a81.355,81.355,0,0,1,13.22,4.088A62.581,62.581,0,0,1,208.9,44.957C216.055,51.122,220.341,58.474,220.341,66.155Z" transform="translate(-83.656 -7.374)" fill="#56d353"/>
  <g id="Grupo_342" data-name="Grupo 342" transform="translate(41.111 3.626)">
    <path id="Trazado_131" data-name="Trazado 131" d="M165.91,31.671s-20.176,23.935-13.55,70.617L139.536,93.98,124.7,103.574c2.077-2.44,5.967-8.6,9-16.814h0A69.381,69.381,0,0,0,137.59,70.8a58,58,0,0,0,.363-6.4V63.056c0-9.726-.033-20.374,4.451-27.232,2.407-3.659,6.1-6.231,11.868-7.022C151.932,18.583,144.019,11,144.019,11c10.22,0,16.913,9.923,20.638,17.77.989.066,2.011.165,3,.264Z" transform="translate(-124.7 -11)" fill="#46ba43"/>
    <path id="Trazado_132" data-name="Trazado 132" d="M255.342,194.87A53.921,53.921,0,0,1,226,174.1a113.577,113.577,0,0,0,27.33,12.989h0C254.023,189.5,254.715,192.133,255.342,194.87Z" transform="translate(-192.603 -120.329)" fill="#46ba43"/>
  </g>
  <g id="Grupo_343" data-name="Grupo 343" transform="translate(87.11 34.913)">
    <path id="Trazado_133" data-name="Trazado 133" d="M275.92,111.472a1.722,1.722,0,0,1-1.253-.527,5.253,5.253,0,0,0-7.451,0,1.748,1.748,0,0,1-2.473-2.473,8.755,8.755,0,0,1,12.4,0,1.731,1.731,0,0,1,0,2.473A1.651,1.651,0,0,1,275.92,111.472Z" transform="translate(-264.225 -105.9)" fill="#4d4d4d"/>
    <path id="Trazado_134" data-name="Trazado 134" d="M348.52,111.472a1.722,1.722,0,0,1-1.253-.527,5.253,5.253,0,0,0-7.451,0,1.748,1.748,0,0,1-2.473-2.473,8.755,8.755,0,0,1,12.4,0,1.731,1.731,0,0,1,0,2.473A1.6,1.6,0,0,1,348.52,111.472Z" transform="translate(-312.89 -105.9)" fill="#4d4d4d"/>
    <path id="Trazado_135" data-name="Trazado 135" d="M348.064,197.2a1.722,1.722,0,0,1,1.253.527,5.253,5.253,0,0,0,7.451,0,1.748,1.748,0,0,1,2.473,2.473,8.755,8.755,0,0,1-12.4,0,1.731,1.731,0,0,1,0-2.473A1.651,1.651,0,0,1,348.064,197.2Z" transform="translate(-319.258 -167.1)" fill="#4d4d4d"/>
  </g>
  <g id="Grupo_344" data-name="Grupo 344" transform="translate(120.234 54.43)">
    <path id="Trazado_136" data-name="Trazado 136" d="M366.645,176.088a1.945,1.945,0,1,1,1.945-2.011A1.97,1.97,0,0,1,366.645,176.088Z" transform="translate(-364.7 -169.857)" fill="#46ba43"/>
    <path id="Trazado_137" data-name="Trazado 137" d="M398.543,168.99a1.945,1.945,0,1,1,1.945-2.044A1.963,1.963,0,0,1,398.543,168.99Z" transform="translate(-386.081 -165.1)" fill="#46ba43"/>
  </g>
  <path id="Trazado_138" data-name="Trazado 138" d="M178.152,284.373a59.326,59.326,0,0,1-118.652,0,75.509,75.509,0,0,1,1.846-16.055l11.506,7.451L81,270.494,95.831,260.9l7.484,4.846L118.842,275.8l22.979-14.869,3.791,2.473h0L164.8,275.834l11.506-7.451A74.212,74.212,0,0,1,178.152,284.373Z" transform="translate(-39.884 -174.887)" fill="#e6e6e6"/>
  <path id="Trazado_139" data-name="Trazado 139" d="M128.205,342.957A59.447,59.447,0,0,1,59.5,284.373a75.509,75.509,0,0,1,1.846-16.055l11.506,7.451L81,270.494,95.831,260.9l7.484,4.846s-21.034,53.441,24.891,77.211Z" transform="translate(-39.884 -174.887)" fill="#ccc"/>
</svg>
